<?xml version="1.0" encoding="UTF-8"?>
<svg xmlns="http://www.w3.org/2000/svg" viewBox="0 0 128 128" width="128" height="128">
  <!-- Background -->
  <rect width="128" height="128" rx="16" fill="#714B67"/>
  
  <!-- Document -->
  <rect x="28" y="20" width="50" height="65" rx="4" fill="white"/>
  <rect x="28" y="20" width="50" height="15" rx="4" fill="#875A7B"/>
  
  <!-- Document lines -->
  <rect x="35" y="45" width="35" height="4" rx="2" fill="#E0E0E0"/>
  <rect x="35" y="55" width="30" height="4" rx="2" fill="#E0E0E0"/>
  <rect x="35" y="65" width="25" height="4" rx="2" fill="#E0E0E0"/>
  <rect x="35" y="75" width="20" height="4" rx="2" fill="#E0E0E0"/>
  
  <!-- Checkmark -->
  <circle cx="53" cy="27" r="5" fill="white"/>
  <path d="M50 27 L52 29 L56 25" stroke="#714B67" stroke-width="2" fill="none" stroke-linecap="round" stroke-linejoin="round"/>
  
  <!-- Gavel -->
  <rect x="75" y="55" width="30" height="12" rx="3" fill="#F5F5F5" transform="rotate(-45 90 61)"/>
  <rect x="88" y="75" width="8" height="25" rx="2" fill="#D4A373"/>
  <ellipse cx="92" cy="102" rx="12" ry="5" fill="#8B6914"/>
  
  <!-- DZD Symbol -->
  <text x="95" y="45" font-family="Arial, sans-serif" font-size="14" font-weight="bold" fill="#F5F5F5">DZD</text>
</svg>
