<?xml version="1.0" encoding="UTF-8"?>
<svg xmlns="http://www.w3.org/2000/svg" viewBox="0 0 128 128" width="128" height="128">
  <!-- Background with gradient -->
  <defs>
    <linearGradient id="bgGrad" x1="0%" y1="0%" x2="100%" y2="100%">
      <stop offset="0%" style="stop-color:#714B67"/>
      <stop offset="100%" style="stop-color:#4A3246"/>
    </linearGradient>
    <linearGradient id="docGrad" x1="0%" y1="0%" x2="0%" y2="100%">
      <stop offset="0%" style="stop-color:#FFFFFF"/>
      <stop offset="100%" style="stop-color:#F0F0F0"/>
    </linearGradient>
  </defs>
  
  <!-- Rounded background -->
  <rect width="128" height="128" rx="20" fill="url(#bgGrad)"/>
  
  <!-- Main document -->
  <rect x="28" y="20" width="52" height="68" rx="4" fill="url(#docGrad)" stroke="#E0D4DC" stroke-width="1"/>
  
  <!-- Document fold corner -->
  <path d="M68 20 L80 20 L80 32 L68 32 Z" fill="#E8E0E5"/>
  <path d="M68 20 L80 32 L68 32 Z" fill="#D0C4CC"/>
  
  <!-- Document lines -->
  <rect x="36" y="36" width="30" height="4" rx="2" fill="#714B67" opacity="0.6"/>
  <rect x="36" y="46" width="36" height="3" rx="1" fill="#714B67" opacity="0.3"/>
  <rect x="36" y="54" width="32" height="3" rx="1" fill="#714B67" opacity="0.3"/>
  <rect x="36" y="62" width="28" height="3" rx="1" fill="#714B67" opacity="0.3"/>
  <rect x="36" y="70" width="24" height="3" rx="1" fill="#714B67" opacity="0.3"/>
  
  <!-- Shopping cart icon -->
  <g transform="translate(58, 56)">
    <!-- Cart body -->
    <circle cx="32" cy="32" r="28" fill="#F8B84E" stroke="#E5A33C" stroke-width="2"/>
    
    <!-- Cart icon -->
    <path d="M20 18 L24 18 L26 20 L44 20 L42 32 L28 32 L27 28" 
          fill="none" stroke="#FFFFFF" stroke-width="3" stroke-linecap="round" stroke-linejoin="round"/>
    <circle cx="30" cy="38" r="3" fill="#FFFFFF"/>
    <circle cx="40" cy="38" r="3" fill="#FFFFFF"/>
    
    <!-- Checkmark -->
    <path d="M26 24 L30 28 L38 20" fill="none" stroke="#FFFFFF" stroke-width="2.5" stroke-linecap="round" stroke-linejoin="round"/>
  </g>
  
  <!-- Algerian flag colors accent -->
  <rect x="28" y="92" width="20" height="6" rx="3" fill="#006233"/>
  <rect x="48" y="92" width="20" height="6" rx="3" fill="#FFFFFF" stroke="#E0E0E0" stroke-width="0.5"/>
  <rect x="68" y="92" width="20" height="6" rx="3" fill="#D21034"/>
</svg>
